<svg width="80" height="80" viewBox="0 0 80 80" fill="none" xmlns="http://www.w3.org/2000/svg">
<rect width="80" height="80" rx="40" fill="#258576"/>
<path d="M23.3335 48.3333V25C23.3335 24.5278 23.4932 24.132 23.8127 23.8125C24.1321 23.4931 24.5279 23.3333 25.0002 23.3333H46.6668C47.1391 23.3333 47.5349 23.4931 47.8543 23.8125C48.1738 24.132 48.3335 24.5278 48.3335 25V40C48.3335 40.4722 48.1738 40.8681 47.8543 41.1875C47.5349 41.507 47.1391 41.6667 46.6668 41.6667H30.0002L23.3335 48.3333ZM31.6668 50C31.1946 50 30.7988 49.8403 30.4793 49.5208C30.1599 49.2014 30.0002 48.8056 30.0002 48.3333V45H51.6668V30H55.0002C55.4724 30 55.8682 30.1597 56.1877 30.4792C56.5071 30.7986 56.6668 31.1945 56.6668 31.6667V56.6667L50.0002 50H31.6668Z" fill="white"/>
</svg>
