<?xml version="1.0" encoding="UTF-8"?>
<svg version="1.1" xmlns="http://www.w3.org/2000/svg" width="702" height="139">
<path d="M0 0 C7.59 0 15.18 0 23 0 C23 11.88 23 23.76 23 36 C27.29 36 31.58 36 36 36 C36 24.12 36 12.24 36 0 C43.59 0 51.18 0 59 0 C59 31.02 59 62.04 59 94 C51.74 94 44.48 94 37 94 C36 93 36 93 35.88647461 89.39819336 C35.88663375 87.79540144 35.89232937 86.1926044 35.90234375 84.58984375 C35.9037587 83.74780899 35.90517365 82.90577423 35.90663147 82.03822327 C35.91224737 79.33794665 35.92480252 76.63775172 35.9375 73.9375 C35.94251295 72.11132932 35.94707621 70.28515734 35.95117188 68.45898438 C35.96222196 63.97262458 35.97949721 59.48632616 36 55 C31.71 55 27.42 55 23 55 C23 67.87 23 80.74 23 94 C15.41 94 7.82 94 0 94 C0 62.98 0 31.96 0 0 Z " fill="#203C48" transform="translate(161,27)"/>
<path d="M0 0 C6.93 0 13.86 0 21 0 C21.33 8.58 21.66 17.16 22 26 C24.31 24.68 26.62 23.36 29 22 C34.50518972 21.05585649 39.4207711 21.26678658 44.5 23.625 C49.59704457 28.46719234 51.8019835 32.75765958 52.12698364 39.72052002 C52.12777924 40.70123474 52.12857483 41.68194946 52.12939453 42.69238281 C52.13254669 43.80993958 52.13569885 44.92749634 52.13894653 46.07891846 C52.1369223 47.27490662 52.13489807 48.47089478 52.1328125 49.703125 C52.13376923 50.9366571 52.13472595 52.17018921 52.13571167 53.44110107 C52.13656518 56.70892105 52.13254767 59.97669321 52.12695312 63.24450684 C52.12499594 65.25416566 52.12695393 67.26378105 52.13037109 69.2734375 C52.13651925 73.12502083 52.13580908 76.97653905 52.1328125 80.828125 C52.13483673 82.03221008 52.13686096 83.23629517 52.13894653 84.47686768 C52.13421829 86.13428986 52.13421829 86.13428986 52.12939453 87.82519531 C52.12859894 88.80272766 52.12780334 89.78026001 52.12698364 90.78741455 C52 93 52 93 51 94 C49.5112814 94.08669432 48.018555 94.10703494 46.52734375 94.09765625 C45.62822266 94.09443359 44.72910156 94.09121094 43.80273438 94.08789062 C42.38444336 94.07532227 42.38444336 94.07532227 40.9375 94.0625 C39.98810547 94.05798828 39.03871094 94.05347656 38.06054688 94.04882812 C35.70696935 94.0370011 33.35351523 94.02052025 31 94 C30.98969254 93.38247864 30.97938507 92.76495728 30.96876526 92.12872314 C30.86063254 85.70484982 30.74603989 79.28111484 30.62768555 72.85742188 C30.58435845 70.45966485 30.54268178 68.0618774 30.50268555 65.6640625 C30.44492937 62.21865674 30.38124994 58.77340375 30.31640625 55.328125 C30.29969376 54.25508118 30.28298126 53.18203735 30.26576233 52.07647705 C30.24581711 51.07574158 30.22587189 50.0750061 30.20532227 49.04394531 C30.18200584 47.72490204 30.18200584 47.72490204 30.15821838 46.37921143 C30.00867313 44.13042229 29.62461828 42.16009502 29 40 C27.02 40 25.04 40 23 40 C21.75660024 42.48679952 21.84172513 44.21797088 21.79467773 47.00048828 C21.77473251 48.04141632 21.75478729 49.08234436 21.73423767 50.15481567 C21.71752518 51.28192963 21.70081268 52.40904358 21.68359375 53.5703125 C21.66281265 54.72167694 21.64203156 55.87304138 21.62062073 57.05929565 C21.55508335 60.7478014 21.49622072 64.43638003 21.4375 68.125 C21.39431877 70.62110138 21.35070462 73.1171953 21.30664062 75.61328125 C21.19939765 81.74211226 21.09814199 87.87101677 21 94 C14.07 94 7.14 94 0 94 C0 62.98 0 31.96 0 0 Z " fill="#24404B" transform="translate(428,27)"/>
<path d="M0 0 C0.79921875 -0.01611328 1.5984375 -0.03222656 2.421875 -0.04882812 C8.7612151 -0.05395704 15.26936881 0.74422613 20.44067383 4.70214844 C27.62373779 12.11120372 26.93603517 22.97940346 27.0390625 32.6640625 C27.05842865 33.80410736 27.0777948 34.94415222 27.0977478 36.1187439 C27.15705822 39.72492217 27.20373363 43.3311332 27.25 46.9375 C27.28822449 49.39714858 27.32727875 51.85678442 27.3671875 54.31640625 C27.46271948 60.31499944 27.54692806 66.31365519 27.625 72.3125 C21.025 72.3125 14.425 72.3125 7.625 72.3125 C6.965 70.6625 6.305 69.0125 5.625 67.3125 C4.738125 68.09625 3.85125 68.88 2.9375 69.6875 C-2.09609008 73.81013874 -6.34277041 74.79048383 -12.8125 74.6171875 C-17.81442781 74.02244608 -21.57555244 72.33575945 -24.9453125 68.546875 C-29.18737808 62.38981982 -29.89064886 56.55506654 -28.75 49.3125 C-27.24675473 43.02970568 -25.35200906 38.26404463 -19.80078125 34.625 C-13.71739276 31.44414327 -7.47499879 29.20891401 -0.87109375 27.3671875 C2.05482515 26.13088374 3.12593746 25.09500649 4.625 22.3125 C4.39631906 18.62434707 4.39631906 18.62434707 3.625 15.3125 C0.655 15.3125 -2.315 15.3125 -5.375 15.3125 C-6.035 18.6125 -6.695 21.9125 -7.375 25.3125 C-10.68755326 25.33933436 -13.99989183 25.3592578 -17.3125 25.375 C-18.25802734 25.38337891 -19.20355469 25.39175781 -20.17773438 25.40039062 C-21.52641602 25.40522461 -21.52641602 25.40522461 -22.90234375 25.41015625 C-24.15132446 25.41801147 -24.15132446 25.41801147 -25.42553711 25.42602539 C-27.375 25.3125 -27.375 25.3125 -28.375 24.3125 C-28.5680704 17.23784884 -27.00198291 11.70025369 -22.375 6.3125 C-15.64801999 0.75542956 -8.40304289 -0.03355848 0 0 Z M-0.875 41.625 C-1.6690625 42.05425781 -2.463125 42.48351562 -3.28125 42.92578125 C-5.6438318 44.2960631 -5.6438318 44.2960631 -7.375 47.3125 C-7.92294453 50.84211671 -8.02129177 54.16353686 -6.25 57.3125 C-3.44336961 58.80936954 -1.49742157 58.76785315 1.625 58.3125 C4.47622267 55.65791337 5.2114503 53.11715723 5.625 49.3125 C5.6967263 45.97722714 5.683288 42.64786884 5.625 39.3125 C2.94308367 39.3125 1.467956 40.3356135 -0.875 41.625 Z " fill="#203C48" transform="translate(317.375,48.6875)"/>
<path d="M0 0 C0.75990234 -0.01611328 1.51980469 -0.03222656 2.30273438 -0.04882812 C9.14867798 -0.05467436 15.54737361 1.47605447 20.875 6 C21.41769531 6.43699219 21.96039063 6.87398437 22.51953125 7.32421875 C27.69747859 13.99656102 27.44488459 21.26416868 27.25 29.3125 C27.188125 32.9425 27.12625 36.5725 27.0625 40.3125 C16.1725 40.3125 5.2825 40.3125 -5.9375 40.3125 C-5.4425 48.2325 -5.4425 48.2325 -4.9375 56.3125 C-2.9575 56.9725 -0.9775 57.6325 1.0625 58.3125 C2.66756456 57.30092741 2.66756456 57.30092741 4.0625 55.3125 C4.3925 52.6725 4.7225 50.0325 5.0625 47.3125 C11.9925 47.3125 18.9225 47.3125 26.0625 47.3125 C26.0625 56.63455191 25.86452076 62.22450282 19.48828125 68.98046875 C12.04832176 74.89428271 2.15870019 75.0606209 -6.9375 74.3125 C-13.6808219 73.16940127 -19.63553864 70.83544244 -23.9375 65.3125 C-26.83950859 59.69700713 -27.38150074 55.21088523 -27.3359375 48.94140625 C-27.33880768 48.06024643 -27.34167786 47.17908661 -27.34463501 46.27122498 C-27.34666719 44.41640578 -27.34119679 42.56156473 -27.32861328 40.70678711 C-27.31256665 37.88671314 -27.32848074 35.06807637 -27.34765625 32.24804688 C-27.34567329 30.43749687 -27.34182853 28.62694775 -27.3359375 26.81640625 C-27.34201019 25.98283096 -27.34808289 25.14925568 -27.3543396 24.29042053 C-27.27848407 17.89201873 -26.25981136 12.2103407 -22.140625 7.0703125 C-21.49609375 6.53148437 -20.8515625 5.99265625 -20.1875 5.4375 C-19.55328125 4.88320313 -18.9190625 4.32890625 -18.265625 3.7578125 C-12.55100975 0.21014867 -6.51790724 -0.02750172 0 0 Z M-4.75 15.8125 C-6.47078032 19.43519541 -6.13698095 22.32288102 -5.9375 26.3125 C-1.9775 26.3125 1.9825 26.3125 6.0625 26.3125 C6.5873398 20.71582933 6.5873398 20.71582933 4.375 15.8125 C0.93913851 13.58383309 -1.48205135 13.10799077 -4.75 15.8125 Z " fill="#1E3A46" transform="translate(255.9375,48.6875)"/>
<path d="M0 0 C0.75990234 -0.01611328 1.51980469 -0.03222656 2.30273438 -0.04882812 C10.04529259 -0.05544004 16.79576925 2.03003953 22.46362305 7.45922852 C27.81403615 13.66093654 27.44785277 22.14823661 27.25 29.875 C27.188125 33.319375 27.12625 36.76375 27.0625 40.3125 C16.1725 40.3125 5.2825 40.3125 -5.9375 40.3125 C-5.4425 48.2325 -5.4425 48.2325 -4.9375 56.3125 C-2.9575 56.9725 -0.9775 57.6325 1.0625 58.3125 C2.66756456 57.30092741 2.66756456 57.30092741 4.0625 55.3125 C4.3925 52.6725 4.7225 50.0325 5.0625 47.3125 C11.9925 47.3125 18.9225 47.3125 26.0625 47.3125 C26.0625 56.1466032 26.05384134 60.64358348 20.58984375 67.03515625 C14.53103551 72.86478971 7.27727396 74.43441325 -0.9375 74.6875 C-9.33329238 74.42883631 -16.08467597 72.70183214 -22.46484375 67.10546875 C-27.0263446 61.55181122 -27.39392108 56.4794403 -27.37109375 49.6015625 C-27.3763356 48.67459564 -27.38157745 47.74762878 -27.38697815 46.79257202 C-27.39338215 44.83763629 -27.39208243 42.88266195 -27.38354492 40.92773438 C-27.37504635 37.95372052 -27.40380049 34.98163637 -27.43554688 32.0078125 C-27.43715951 30.10156307 -27.43658017 28.19531027 -27.43359375 26.2890625 C-27.44482773 25.4086026 -27.45606171 24.5281427 -27.46763611 23.6210022 C-27.39127406 16.77579856 -25.6543052 11.59293146 -21.26171875 6.2890625 C-20.72160156 5.84304687 -20.18148437 5.39703125 -19.625 4.9375 C-19.09261719 4.47601563 -18.56023438 4.01453125 -18.01171875 3.5390625 C-12.35974945 0.19684337 -6.37091255 -0.02688149 0 0 Z M-4.6484375 15.515625 C-6.30780671 17.82868511 -6.24744356 19.1837982 -6.125 22 C-6.063125 23.423125 -6.00125 24.84625 -5.9375 26.3125 C-1.9775 26.3125 1.9825 26.3125 6.0625 26.3125 C6.53351515 20.37907596 6.53351515 20.37907596 4.0625 15.3125 C-0.47010616 13.92349043 -0.47010616 13.92349043 -4.6484375 15.515625 Z " fill="#213D48" transform="translate(665.9375,48.6875)"/>
<path d="M0 0 C4.90229244 1.6460252 8.15957933 4.74411137 11 9 C11.48101807 11.99299622 11.48101807 11.99299622 11.45410156 15.35083008 C11.45379944 16.6117598 11.45349731 17.87268951 11.45318604 19.17182922 C11.43276265 20.5377364 11.41189872 21.90363705 11.390625 23.26953125 C11.38315885 24.67485243 11.37746768 26.08018407 11.37347412 27.48551941 C11.35824686 31.17321836 11.31899146 34.86028091 11.2746582 38.54772949 C11.2336419 42.31493522 11.21544962 46.08224442 11.1953125 49.84960938 C11.15249324 57.23336214 11.08427861 64.61659169 11 72 C7.68751813 72.02888146 4.37506833 72.04675799 1.0625 72.0625 C0.11697266 72.07087891 -0.82855469 72.07925781 -1.80273438 72.08789062 C-3.15141602 72.09272461 -3.15141602 72.09272461 -4.52734375 72.09765625 C-5.35999756 72.10289307 -6.19265137 72.10812988 -7.05053711 72.11352539 C-9 72 -9 72 -10 71 C-10.12299166 69.31290653 -10.17785258 67.62079097 -10.20532227 65.92944336 C-10.22526749 64.84839828 -10.24521271 63.76735321 -10.26576233 62.65354919 C-10.28247482 61.4775264 -10.29918732 60.3015036 -10.31640625 59.08984375 C-10.33718735 57.89267227 -10.35796844 56.69550079 -10.37937927 55.46205139 C-10.44500279 51.62059513 -10.50381903 47.77906799 -10.5625 43.9375 C-10.60567305 41.34048733 -10.64928693 38.74348194 -10.69335938 36.14648438 C-10.80069716 29.76439883 -10.90243931 23.38224207 -11 17 C-13.31 17.33 -15.62 17.66 -18 18 C-18.33 35.82 -18.66 53.64 -19 72 C-25.6 72 -32.2 72 -39 72 C-40 71 -40 71 -40.12025452 68.26023865 C-40.11803391 67.03668167 -40.11581329 65.81312469 -40.11352539 64.55249023 C-40.11367142 63.87934784 -40.11381744 63.20620544 -40.1139679 62.51266479 C-40.11326878 60.27794216 -40.10547652 58.0433019 -40.09765625 55.80859375 C-40.09579206 54.26302638 -40.09436816 52.71745843 -40.09336853 51.17189026 C-40.0895434 47.09642923 -40.07971317 43.02100363 -40.06866455 38.94555664 C-40.05845032 34.78988118 -40.05387089 30.63420001 -40.04882812 26.47851562 C-40.03809089 18.31899232 -40.02049414 10.15950464 -40 2 C-33.73 1.67 -27.46 1.34 -21 1 C-20.34 2.65 -19.68 4.3 -19 6 C-18.05125 5.195625 -17.1025 4.39125 -16.125 3.5625 C-11.07734332 -0.71703501 -6.49721594 -0.64613197 0 0 Z " fill="#364F59" transform="translate(618,49)"/>
<path d="M0 0 C7.59 0 15.18 0 23 0 C23 24.42 23 48.84 23 74 C31.91 74 40.82 74 50 74 C50 80.6 50 87.2 50 94 C33.5 94 17 94 0 94 C0 62.98 0 31.96 0 0 Z " fill="#24404B" transform="translate(488,27)"/>
<path d="M0 0 C6.93 0 13.86 0 21 0 C21 6.6 21 13.2 21 20 C23.97 19.67 26.94 19.34 30 19 C31 20 31 20 31.09765625 23.37890625 C31.09098369 24.77347077 31.07902532 26.16801743 31.0625 27.5625 C31.05798828 28.27341797 31.05347656 28.98433594 31.04882812 29.71679688 C31.03700864 31.47790013 31.01907263 33.23896036 31 35 C27.7 35 24.4 35 21 35 C21.11808403 40.23290697 21.24232036 45.46561751 21.37231445 50.69824219 C21.4156833 52.47912603 21.45735694 54.26005198 21.49731445 56.04101562 C21.5549699 58.59778548 21.6186777 61.15434298 21.68359375 63.7109375 C21.70030624 64.50994476 21.71701874 65.30895203 21.73423767 66.13217163 C21.75392991 70.19806368 21.75392991 70.19806368 23 74 C24.89533342 74.46523063 24.89533342 74.46523063 27.0625 74.625 C28.361875 74.74875 29.66125 74.8725 31 75 C31 79.95 31 84.9 31 90 C13.8 92.45714286 13.8 92.45714286 6 88 C2.06986704 85.02584533 0.89998596 81.71106397 0 77 C-0.25241298 73.70552297 -0.2339388 70.43141699 -0.1953125 67.12890625 C-0.19106766 65.74541237 -0.19106766 65.74541237 -0.18673706 64.33396912 C-0.17560974 61.41000987 -0.15051912 58.48636549 -0.125 55.5625 C-0.11496057 53.57096799 -0.1058364 51.57943114 -0.09765625 49.58789062 C-0.07569483 44.7251405 -0.04121673 39.8626235 0 35 C-2.31 35 -4.62 35 -7 35 C-7 30.05 -7 25.1 -7 20 C-4.69 20 -2.38 20 0 20 C0 13.4 0 6.8 0 0 Z " fill="#24404B" transform="translate(390,31)"/>
<path d="M0 0 C37.62 0 75.24 0 114 0 C114 5.94 114 11.88 114 18 C76.38 18 38.76 18 0 18 C0 12.06 0 6.12 0 0 Z " fill="#3EAFAF" transform="translate(8,70)"/>
<path d="M0 0 C37.62 0 75.24 0 114 0 C114 5.94 114 11.88 114 18 C76.38 18 38.76 18 0 18 C0 12.06 0 6.12 0 0 Z " fill="#3FAFAF" transform="translate(8,49)"/>
<path d="M0 0 C6.93 0 13.86 0 21 0 C21 31.02 21 62.04 21 94 C14.07 94 7.14 94 0 94 C0 62.98 0 31.96 0 0 Z " fill="#26414C" transform="translate(354,27)"/>
<path d="M0 0 C0.78439453 0.0407666 1.56878906 0.0815332 2.37695312 0.12353516 C3.22644531 0.16736328 4.0759375 0.21119141 4.95117188 0.25634766 C5.84449219 0.30791016 6.7378125 0.35947266 7.65820312 0.41259766 C8.55152344 0.45642578 9.44484375 0.50025391 10.36523438 0.54541016 C17.03010571 0.90950024 17.03010571 0.90950024 18.15820312 2.03759766 C18.25768505 4.14897666 18.28619951 6.26372051 18.28759766 8.37744141 C18.28934998 9.03922394 18.29110229 9.70100647 18.29290771 10.38284302 C18.2973253 12.58028755 18.29438859 14.77765224 18.29101562 16.97509766 C18.29168869 18.49584977 18.29265874 20.01660177 18.29391479 21.53735352 C18.29539164 24.72852602 18.29323765 27.91967058 18.28857422 31.11083984 C18.28287693 35.21024296 18.28615601 39.30958061 18.29214668 43.40898132 C18.29575266 46.5504201 18.29461354 49.69184324 18.29201889 52.83328247 C18.29134972 54.34522509 18.29217769 55.85716912 18.29449844 57.36911011 C18.29702558 59.47869653 18.29318356 61.58817553 18.28759766 63.69775391 C18.28680206 64.90052979 18.28600647 66.10330566 18.28518677 67.3425293 C18.15820312 70.03759766 18.15820312 70.03759766 17.15820312 71.03759766 C15.66948453 71.12429198 14.17675813 71.14463259 12.68554688 71.13525391 C11.78642578 71.13203125 10.88730469 71.12880859 9.9609375 71.12548828 C8.54264648 71.11291992 8.54264648 71.11291992 7.09570312 71.10009766 C6.14630859 71.09558594 5.19691406 71.09107422 4.21875 71.08642578 C1.86517247 71.07459876 -0.48828165 71.05811791 -2.84179688 71.03759766 C-2.86492232 61.92800601 -2.88271299 52.8184244 -2.89360905 43.70880985 C-2.89883743 39.47928395 -2.90593427 35.24977806 -2.91723633 31.02026367 C-2.92806679 26.94191223 -2.93407404 22.86358009 -2.93667412 18.78521538 C-2.93852808 17.22582126 -2.94214815 15.66642825 -2.94752693 14.10704231 C-2.95473949 11.93030604 -2.95578773 9.75365051 -2.95532227 7.5769043 C-2.95754288 6.33558243 -2.95976349 5.09426056 -2.96205139 3.81532288 C-2.79935067 0.05714475 -2.79935067 0.05714475 0 0 Z " fill="#26414C" transform="translate(548.841796875,49.96240234375)"/>
<path d="M0 0 C5.61 0 11.22 0 17 0 C17 2.97 17 5.94 17 9 C18.32 8.34 19.64 7.68 21 7 C20.86042877 7.58111542 20.72085754 8.16223083 20.57705688 8.76095581 C19.05854636 15.59547231 18.66178633 22.14658647 18.5859375 29.1328125 C18.56657135 30.25066132 18.5472052 31.36851013 18.5272522 32.52023315 C18.46795711 36.05508028 18.42127267 39.58996087 18.375 43.125 C18.33677409 45.53647174 18.29771975 47.9479305 18.2578125 50.359375 C18.16229716 56.23947664 18.07808313 62.11964209 18 68 C12.06 68 6.12 68 0 68 C0 45.56 0 23.12 0 0 Z " fill="#0C2B37" transform="translate(580,52)"/>
<path d="M0 0 C6.53279339 -0.02464347 13.06555998 -0.04283291 19.59838867 -0.05493164 C21.82267732 -0.05997317 24.04696263 -0.06680623 26.27124023 -0.07543945 C29.46078309 -0.08751298 32.65028229 -0.09322996 35.83984375 -0.09765625 C37.34139259 -0.10539818 37.34139259 -0.10539818 38.87327576 -0.11329651 C39.79415482 -0.11337204 40.71503387 -0.11344757 41.66381836 -0.11352539 C42.47878281 -0.115746 43.29374725 -0.11796661 44.13340759 -0.12025452 C46 0 46 0 47 1 C47 6.61 47 12.22 47 18 C31.49 18 15.98 18 0 18 C0 12.06 0 6.12 0 0 Z " fill="#23A5A4" transform="translate(8,91)"/>
<path d="M0 0 C15.51 0 31.02 0 47 0 C47 5.61 47 11.22 47 17 C46 18 46 18 44.13340759 18.12025452 C43.31844315 18.11803391 42.5034787 18.11581329 41.66381836 18.11352539 C40.28249977 18.11341209 40.28249977 18.11341209 38.87327576 18.11329651 C37.87224319 18.10813522 36.87121063 18.10297394 35.83984375 18.09765625 C34.82024063 18.0962413 33.80063751 18.09482635 32.75013733 18.09336853 C29.47922893 18.08775097 26.20838787 18.0751955 22.9375 18.0625 C20.72591244 18.05748726 18.51432382 18.05292396 16.30273438 18.04882812 C10.86846346 18.03777583 5.43424316 18.02049944 0 18 C0 12.06 0 6.12 0 0 Z " fill="#22A6A6" transform="translate(8,28)"/>
<path d="M0 0 C6.53279339 -0.02464347 13.06555998 -0.04283291 19.59838867 -0.05493164 C21.82267732 -0.05997317 24.04696263 -0.06680623 26.27124023 -0.07543945 C29.46078309 -0.08751298 32.65028229 -0.09322996 35.83984375 -0.09765625 C37.34139259 -0.10539818 37.34139259 -0.10539818 38.87327576 -0.11329651 C39.79415482 -0.11337204 40.71503387 -0.11344757 41.66381836 -0.11352539 C42.47878281 -0.115746 43.29374725 -0.11796661 44.13340759 -0.12025452 C46 0 46 0 47 1 C47 6.61 47 12.22 47 18 C31.49 18 15.98 18 0 18 C0 12.06 0 6.12 0 0 Z " fill="#45B1B1" transform="translate(8,6)"/>
<path d="M0 0 C6.53279339 -0.02464347 13.06555998 -0.04283291 19.59838867 -0.05493164 C21.82267732 -0.05997317 24.04696263 -0.06680623 26.27124023 -0.07543945 C29.46078309 -0.08751298 32.65028229 -0.09322996 35.83984375 -0.09765625 C37.34139259 -0.10539818 37.34139259 -0.10539818 38.87327576 -0.11329651 C39.79415482 -0.11337204 40.71503387 -0.11344757 41.66381836 -0.11352539 C42.47878281 -0.115746 43.29374725 -0.11796661 44.13340759 -0.12025452 C46 0 46 0 47 1 C47.09981214 3.6773138 47.13879875 6.32304175 47.125 9 C47.13080078 10.12535156 47.13080078 10.12535156 47.13671875 11.2734375 C47.12661053 16.87338947 47.12661053 16.87338947 46 18 C44.55710213 18.09295815 43.10970215 18.11746513 41.66381836 18.11352539 C40.28249977 18.11341209 40.28249977 18.11341209 38.87327576 18.11329651 C37.87224319 18.10813522 36.87121063 18.10297394 35.83984375 18.09765625 C34.82024063 18.0962413 33.80063751 18.09482635 32.75013733 18.09336853 C29.47922893 18.08775097 26.20838787 18.0751955 22.9375 18.0625 C20.72591244 18.05748726 18.51432382 18.05292396 16.30273438 18.04882812 C10.86846346 18.03777583 5.43424316 18.02049944 0 18 C0 12.06 0 6.12 0 0 Z " fill="#22A6A5" transform="translate(8,113)"/>
<path d="M0 0 C23.265 0.495 23.265 0.495 47 1 C47 6.94 47 12.88 47 19 C31.49 19 15.98 19 0 19 C0 12.73 0 6.46 0 0 Z " fill="#23A5A4" transform="translate(75,27)"/>
<path d="M0 0 C15.51 0 31.02 0 47 0 C47 5.94 47 11.88 47 18 C31.49 18 15.98 18 0 18 C0 12.06 0 6.12 0 0 Z " fill="#43AFAF" transform="translate(75,113)"/>
<path d="M0 0 C1.22244667 0.00333092 1.22244667 0.00333092 2.46958923 0.00672913 C3.39046829 0.00680466 4.31134735 0.00688019 5.26013184 0.00695801 C6.2611644 0.01211929 7.26219696 0.01728058 8.29356384 0.02259827 C9.31316696 0.02401321 10.33277008 0.02542816 11.38327026 0.02688599 C14.65417867 0.03250355 17.92501972 0.04505902 21.19590759 0.05775452 C23.40749515 0.06276725 25.61908377 0.06733055 27.83067322 0.07142639 C33.26494413 0.08247869 38.69916443 0.09975508 44.13340759 0.12025452 C44.13340759 6.06025452 44.13340759 12.00025452 44.13340759 18.12025452 C28.95340759 18.12025452 13.77340759 18.12025452 -1.86659241 18.12025452 C-2.19659241 12.51025452 -2.52659241 6.90025452 -2.86659241 1.12025452 C-1.86659241 0.12025452 -1.86659241 0.12025452 0 0 Z " fill="#23A4A4" transform="translate(77.86659240722656,90.87974548339844)"/>
<path d="M0 0 C1.22244667 0.00333092 1.22244667 0.00333092 2.46958923 0.00672913 C3.39046829 0.00680466 4.31134735 0.00688019 5.26013184 0.00695801 C6.2611644 0.01211929 7.26219696 0.01728058 8.29356384 0.02259827 C9.31316696 0.02401321 10.33277008 0.02542816 11.38327026 0.02688599 C14.65417867 0.03250355 17.92501972 0.04505902 21.19590759 0.05775452 C23.40749515 0.06276725 25.61908377 0.06733055 27.83067322 0.07142639 C33.26494413 0.08247869 38.69916443 0.09975508 44.13340759 0.12025452 C44.13340759 6.06025452 44.13340759 12.00025452 44.13340759 18.12025452 C28.62340759 18.12025452 13.11340759 18.12025452 -2.86659241 18.12025452 C-2.86659241 0.18467914 -2.86659241 0.18467914 0 0 Z " fill="#41B0B0" transform="translate(77.86659240722656,5.8797454833984375)"/>
<path d="M0 0 C3.31255326 -0.02683436 6.62489183 -0.0467578 9.9375 -0.0625 C10.88302734 -0.07087891 11.82855469 -0.07925781 12.80273438 -0.08789062 C14.15141602 -0.09272461 14.15141602 -0.09272461 15.52734375 -0.09765625 C16.77632446 -0.10551147 16.77632446 -0.10551147 18.05053711 -0.11352539 C20 0 20 0 21 1 C21.09981214 3.6773138 21.13879875 6.32304175 21.125 9 C21.13080078 10.12535156 21.13080078 10.12535156 21.13671875 11.2734375 C21.12661053 16.87338947 21.12661053 16.87338947 20 18 C18.5112814 18.08669432 17.018555 18.10703494 15.52734375 18.09765625 C14.62822266 18.09443359 13.72910156 18.09121094 12.80273438 18.08789062 C11.85720703 18.07951172 10.91167969 18.07113281 9.9375 18.0625 C8.98810547 18.05798828 8.03871094 18.05347656 7.06054688 18.04882812 C4.70700469 18.03700128 2.35349468 18.01906521 0 18 C0 12.06 0 6.12 0 0 Z " fill="#354D57" transform="translate(546,27)"/>
<path d="M0 0 C6.53279339 -0.02464347 13.06555998 -0.04283291 19.59838867 -0.05493164 C21.82267732 -0.05997317 24.04696263 -0.06680623 26.27124023 -0.07543945 C29.46078309 -0.08751298 32.65028229 -0.09322996 35.83984375 -0.09765625 C37.34139259 -0.10539818 37.34139259 -0.10539818 38.87327576 -0.11329651 C39.79415482 -0.11337204 40.71503387 -0.11344757 41.66381836 -0.11352539 C42.47878281 -0.115746 43.29374725 -0.11796661 44.13340759 -0.12025452 C46 0 46 0 47 1 C47.09981214 3.6773138 47.13879875 6.32304175 47.125 9 C47.13080078 10.12535156 47.13080078 10.12535156 47.13671875 11.2734375 C47.12661053 16.87338947 47.12661053 16.87338947 46 18 C44.55710213 18.09295815 43.10970215 18.11746513 41.66381836 18.11352539 C40.28249977 18.11341209 40.28249977 18.11341209 38.87327576 18.11329651 C37.87224319 18.10813522 36.87121063 18.10297394 35.83984375 18.09765625 C34.82024063 18.0962413 33.80063751 18.09482635 32.75013733 18.09336853 C29.47922893 18.08775097 26.20838787 18.0751955 22.9375 18.0625 C20.72591244 18.05748726 18.51432382 18.05292396 16.30273438 18.04882812 C10.86846346 18.03777583 5.43424316 18.02049944 0 18 C0 12.06 0 6.12 0 0 Z M2 2 C2 6.29 2 10.58 2 15 C5.97017357 16.32339119 9.69673557 16.01212931 13.82421875 15.87890625 C14.68561966 15.85529526 15.54702057 15.83168427 16.43452454 15.80735779 C19.18568675 15.7307872 21.9365628 15.6467344 24.6875 15.5625 C26.55272037 15.5092727 28.41795471 15.45653235 30.28320312 15.40429688 C34.85564996 15.27518096 39.42785421 15.13935423 44 15 C44 11.37 44 7.74 44 4 C39.08972943 2.03589177 35.55173108 1.73705248 30.41796875 1.8046875 C29.19670036 1.80893234 29.19670036 1.80893234 27.95075989 1.81326294 C25.362854 1.82441416 22.77530042 1.84950917 20.1875 1.875 C18.42773939 1.88503635 16.66797333 1.89416106 14.90820312 1.90234375 C10.60533402 1.9243369 6.30272664 1.95883164 2 2 Z " fill="#84C4C3" transform="translate(8,113)"/>
<path d="M0 0 C15.51 0 31.02 0 47 0 C47 5.61 47 11.22 47 17 C46 18 46 18 44.13340759 18.12025452 C43.31844315 18.11803391 42.5034787 18.11581329 41.66381836 18.11352539 C40.28249977 18.11341209 40.28249977 18.11341209 38.87327576 18.11329651 C37.87224319 18.10813522 36.87121063 18.10297394 35.83984375 18.09765625 C34.82024063 18.0962413 33.80063751 18.09482635 32.75013733 18.09336853 C29.47922893 18.08775097 26.20838787 18.0751955 22.9375 18.0625 C20.72591244 18.05748726 18.51432382 18.05292396 16.30273438 18.04882812 C10.86846346 18.03777583 5.43424316 18.02049944 0 18 C0 12.06 0 6.12 0 0 Z M2 2 C2 6.29 2 10.58 2 15 C15.86 15 29.72 15 44 15 C44 10.71 44 6.42 44 2 C30.14 2 16.28 2 2 2 Z " fill="#86C6C5" transform="translate(8,28)"/>
<path d="M0 0 C6.53279339 -0.02464347 13.06555998 -0.04283291 19.59838867 -0.05493164 C21.82267732 -0.05997317 24.04696263 -0.06680623 26.27124023 -0.07543945 C29.46078309 -0.08751298 32.65028229 -0.09322996 35.83984375 -0.09765625 C37.34139259 -0.10539818 37.34139259 -0.10539818 38.87327576 -0.11329651 C39.79415482 -0.11337204 40.71503387 -0.11344757 41.66381836 -0.11352539 C42.47878281 -0.115746 43.29374725 -0.11796661 44.13340759 -0.12025452 C46 0 46 0 47 1 C47 6.61 47 12.22 47 18 C31.49 18 15.98 18 0 18 C0 12.06 0 6.12 0 0 Z M1 2 C1 6.95 1 11.9 1 17 C15.52 17 30.04 17 45 17 C45 12.05 45 7.1 45 2 C30.48 2 15.96 2 1 2 Z " fill="#BCDEDD" transform="translate(8,91)"/>
<path d="M0 0 C23.265 0.495 23.265 0.495 47 1 C47 6.94 47 12.88 47 19 C31.49 19 15.98 19 0 19 C0 12.73 0 6.46 0 0 Z M2 2 C2 6.95 2 11.9 2 17 C16.52 17 31.04 17 46 17 C46 12.05 46 7.1 46 2 C31.48 2 16.96 2 2 2 Z " fill="#BBDEDD" transform="translate(75,27)"/>
<path d="M0 0 C1.22244667 0.00333092 1.22244667 0.00333092 2.46958923 0.00672913 C3.39046829 0.00680466 4.31134735 0.00688019 5.26013184 0.00695801 C6.2611644 0.01211929 7.26219696 0.01728058 8.29356384 0.02259827 C9.31316696 0.02401321 10.33277008 0.02542816 11.38327026 0.02688599 C14.65417867 0.03250355 17.92501972 0.04505902 21.19590759 0.05775452 C23.40749515 0.06276725 25.61908377 0.06733055 27.83067322 0.07142639 C33.26494413 0.08247869 38.69916443 0.09975508 44.13340759 0.12025452 C44.13340759 6.06025452 44.13340759 12.00025452 44.13340759 18.12025452 C28.95340759 18.12025452 13.77340759 18.12025452 -1.86659241 18.12025452 C-2.19659241 12.51025452 -2.52659241 6.90025452 -2.86659241 1.12025452 C-1.86659241 0.12025452 -1.86659241 0.12025452 0 0 Z M-0.86659241 2.12025452 C-0.86659241 7.07025452 -0.86659241 12.02025452 -0.86659241 17.12025452 C13.65340759 17.12025452 28.17340759 17.12025452 43.13340759 17.12025452 C43.13340759 12.17025452 43.13340759 7.22025452 43.13340759 2.12025452 C28.61340759 2.12025452 14.09340759 2.12025452 -0.86659241 2.12025452 Z " fill="#B8DDDC" transform="translate(77.86659240722656,90.87974548339844)"/>
<path d="M0 0 C4.13678307 3.53960664 4.35209568 7.80366178 5 13 C5.23308265 16.8305775 5.23498146 20.64005194 5.1953125 24.4765625 C5.1924826 25.52782318 5.18965271 26.57908386 5.18673706 27.66220093 C5.17564143 30.98325524 5.15055706 34.30402873 5.125 37.625 C5.11495646 39.89192316 5.10583303 42.15885059 5.09765625 44.42578125 C5.07573701 49.95061485 5.04236699 55.47528735 5 61 C2.42714198 58.42714198 2.73108413 57.39436263 2.68115234 53.81591797 C2.66128265 52.73494843 2.64141296 51.65397888 2.62094116 50.54025269 C2.60938995 49.36939117 2.59783875 48.19852966 2.5859375 46.9921875 C2.56657135 45.79643097 2.5472052 44.60067444 2.5272522 43.36868286 C2.46732056 39.53752852 2.4210164 35.70634435 2.375 31.875 C2.33683276 29.28253875 2.29778179 26.69009034 2.2578125 24.09765625 C2.1616079 17.73188463 2.07660039 11.36603605 2 5 C0.68 4.34 -0.64 3.68 -2 3 C-1.34 3 -0.68 3 0 3 C0 2.01 0 1.02 0 0 Z " fill="#B5BCC0" transform="translate(339,56)"/>
<path d="M0 0 C3.57526113 3.09855965 4.88255311 5.41048601 6 10 C6.23510552 13.96310274 6.18804042 17.90680087 6.125 21.875 C6.08375 25.54625 6.0425 29.2175 6 33 C-4.89 33 -15.78 33 -27 33 C-27 38.28 -27 43.56 -27 49 C-27.33 49 -27.66 49 -28 49 C-28 43.39 -28 37.78 -28 32 C-17.11 32 -6.22 32 5 32 C4.505 19.625 4.505 19.625 4 7 C2.68 6.34 1.36 5.68 0 5 C0 3.35 0 1.7 0 0 Z " fill="#ABB2B5" transform="translate(277,56)"/>
<path d="M0 0 C5.28 0 10.56 0 16 0 C16 0.33 16 0.66 16 1 C15.28972656 1.04898438 14.57945312 1.09796875 13.84765625 1.1484375 C12.46900391 1.26058594 12.46900391 1.26058594 11.0625 1.375 C10.14597656 1.44460937 9.22945313 1.51421875 8.28515625 1.5859375 C7.53105469 1.72257812 6.77695312 1.85921875 6 2 C5.67 2.66 5.34 3.32 5 4 C3.35636866 4.72159424 1.68949614 5.39351421 0 6 C0 4.02 0 2.04 0 0 Z " fill="#0D2530" transform="translate(262,97)"/>
<path d="M0 0 C2.2477975 2.05233685 3.0022242 3.00667261 4 6 C4.07051114 8.73865287 4.09357765 11.45027588 4.0625 14.1875 C4.05798828 14.93708984 4.05347656 15.68667969 4.04882812 16.45898438 C4.03706354 18.30602383 4.01912865 20.15302213 4 22 C3.67 22 3.34 22 3 22 C2.67 16.39 2.34 10.78 2 5 C0.68 4.34 -0.64 3.68 -2 3 C-1.34 3 -0.68 3 0 3 C0 2.01 0 1.02 0 0 Z " fill="#7B888D" transform="translate(339,56)"/>
<path d="M0 0 C-5.94 3.465 -5.94 3.465 -12 7 C-8.84615385 0.69230769 -8.84615385 0.69230769 -5 -0.75 C-3 -1 -3 -1 0 0 Z " fill="#56666D" transform="translate(654,53)"/>
<path d="M0 0 C4.97963801 4.81900452 4.97963801 4.81900452 5.0625 9.625 C5.041875 10.73875 5.02125 11.8525 5 13 C4.67 13 4.34 13 4 13 C4 11.02 4 9.04 4 7 C2.68 6.34 1.36 5.68 0 5 C0 3.35 0 1.7 0 0 Z " fill="#64747C" transform="translate(277,56)"/>
<path d="M0 0 C1.125 3.75 1.125 3.75 0 6 C-0.66 6 -1.32 6 -2 6 C-2.33 6.99 -2.66 7.98 -3 9 C-3.33 8.01 -3.66 7.02 -4 6 C-2.0625 2.8125 -2.0625 2.8125 0 0 Z " fill="#889298" transform="translate(234,56)"/>
<path d="M0 0 C0.66 0.33 1.32 0.66 2 1 C1.34 1.66 0.68 2.32 0 3 C0.33 3.99 0.66 4.98 1 6 C-0.65 6.33 -2.3 6.66 -4 7 C-2.92598892 4.08482708 -2.22189824 2.22189824 0 0 Z " fill="#869497" transform="translate(296,54)"/>
<path d="M0 0 C0.66 0 1.32 0 2 0 C2 0.99 2 1.98 2 3 C2.66 3 3.32 3 4 3 C4 3.66 4 4.32 4 5 C5.32 5.33 6.64 5.66 8 6 C5.69 6 3.38 6 1 6 C0.67 4.02 0.34 2.04 0 0 Z " fill="#6A777E" transform="translate(323,114)"/>
<path d="M0 0 C0.66 0.66 1.32 1.32 2 2 C4.32275177 2.40047444 6.65739357 2.7397104 9 3 C9 3.33 9 3.66 9 4 C5.7 4.33 2.4 4.66 -1 5 C-1.33 4.34 -1.66 3.68 -2 3 C-1.34 3 -0.68 3 0 3 C0 2.01 0 1.02 0 0 Z " fill="#75858B" transform="translate(411,103)"/>
</svg>
